<svg xmlns="http://www.w3.org/2000/svg" width="20" height="20" viewBox="0 0 20 20" aria-hidden="true" role="img" focusable="false">
<path fill="currentColor" fill-rule="evenodd" d="M17.5,5H15v8.5c0,1.4-1.1,2.5-2.5,2.5H11v1.5c0,0.8,0.7,1.5,1.5,1.5h5c0.8,0,1.5-0.7,1.5-1.5v-11C19,5.7,18.3,5,17.5,5z"/>
<path fill="currentColor" fill-rule="evenodd" d="M7.5,19h-5C1.7,19,1,18.3,1,17.5v-11C1,5.7,1.7,5,2.5,5h5C8.3,5,9,5.7,9,6.5v11C9,18.3,8.3,19,7.5,19z"/>
<path fill="currentColor" fill-rule="evenodd" d="M12.5,1h-5C6.7,1,6,1.7,6,2.5V4h1.5C8.9,4,10,5.1,10,6.5V15h2.5c0.8,0,1.5-0.7,1.5-1.5v-11C14,1.7,13.3,1,12.5,1z"/>
</svg>