<svg xmlns="http://www.w3.org/2000/svg" viewBox="0 0 320 141.16" width="320" height="141.16" role="img" focusable="false">
<polygon fill="#FFFFFF" points="16.04,129.42 0,106.62 0,136.98 2.94,136.98 2.94,115.94 18.98,138.75 18.98,108.42 16.04,108.42 	
	"/>
<path fill="#FFFFFF" d="M49.08,112.25c-1.33-1.32-2.89-2.36-4.68-3.13c-1.79-0.77-3.7-1.16-5.71-1.16s-3.91,0.39-5.69,1.16
	c-1.78,0.77-3.33,1.81-4.66,3.13c-1.33,1.32-2.38,2.87-3.15,4.66s-1.16,3.7-1.16,5.71c0,2.02,0.39,3.92,1.16,5.71
	c0.77,1.79,1.82,3.35,3.15,4.68s2.88,2.38,4.66,3.15c1.78,0.77,3.68,1.15,5.69,1.15s3.92-0.39,5.71-1.15
	c1.79-0.77,3.35-1.82,4.68-3.15c1.33-1.33,2.38-2.89,3.15-4.68c0.77-1.79,1.16-3.7,1.16-5.71c0-2.02-0.39-3.92-1.16-5.71
	C51.46,115.12,50.41,113.56,49.08,112.25z M47,130.94c-2.3,2.3-5.07,3.44-8.32,3.44c-3.22,0-5.98-1.15-8.27-3.44
	c-2.3-2.3-3.44-5.07-3.44-8.32c0-3.22,1.15-5.98,3.44-8.27c2.3-2.3,5.05-3.44,8.27-3.44c3.25,0,6.02,1.15,8.32,3.44
	c2.3,2.3,3.44,5.05,3.44,8.27C50.44,125.87,49.29,128.64,47,130.94z"/>
<polygon fill="#FFFFFF" points="108.49,129.42 92.44,106.62 92.44,136.98 95.38,136.98 95.38,115.94 111.43,138.75 111.43,108.42 
	108.49,108.42 	"/>
<path fill="#FFFFFF" d="M141.52,112.25c-1.33-1.32-2.89-2.36-4.68-3.13s-3.7-1.16-5.71-1.16c-2.02,0-3.91,0.39-5.69,1.16
	c-1.78,0.77-3.33,1.81-4.66,3.13c-1.33,1.32-2.38,2.87-3.15,4.66s-1.16,3.7-1.16,5.71c0,2.02,0.39,3.92,1.16,5.71
	c0.77,1.79,1.82,3.35,3.15,4.68s2.88,2.38,4.66,3.15c1.78,0.77,3.68,1.15,5.69,1.15c2.02,0,3.92-0.39,5.71-1.15
	c1.79-0.77,3.35-1.82,4.68-3.15c1.33-1.33,2.38-2.89,3.15-4.68c0.77-1.79,1.15-3.7,1.15-5.71c0-2.02-0.39-3.92-1.15-5.71
	C143.9,115.12,142.85,113.56,141.52,112.25z M139.44,130.94c-2.3,2.3-5.07,3.44-8.32,3.44c-3.22,0-5.98-1.15-8.27-3.44
	c-2.3-2.3-3.44-5.07-3.44-8.32c0-3.22,1.15-5.98,3.44-8.27c2.3-2.3,5.05-3.44,8.27-3.44c3.25,0,6.02,1.15,8.32,3.44
	c2.3,2.3,3.44,5.05,3.44,8.27C142.88,125.87,141.74,128.64,139.44,130.94z"/>
<path fill="#FFFFFF" d="M175.52,126.19h11.59c-0.84,2.48-2.32,4.46-4.42,5.95c-2.11,1.49-4.45,2.24-7.04,2.24
	c-3.26,0-6.04-1.16-8.33-3.48c-2.29-2.32-3.43-5.09-3.43-8.33c0-3.25,1.15-6.02,3.44-8.32c2.3-2.3,5.07-3.44,8.32-3.44
	c2.45,0,4.67,0.69,6.66,2.07c1.99,1.38,3.44,3.22,4.34,5.54h3.11c-0.96-3.15-2.74-5.7-5.36-7.63c-2.61-1.94-5.63-2.91-9.05-2.91
	c-1.82,0-3.63,0.38-5.42,1.16c-1.79,0.77-3.35,1.82-4.68,3.15c-1.33,1.33-2.38,2.89-3.15,4.68c-0.77,1.79-1.16,3.7-1.16,5.73
	s0.39,3.94,1.16,5.73c0.77,1.79,1.82,3.35,3.15,4.68c1.33,1.33,2.89,2.38,4.68,3.15c1.79,0.77,3.7,1.15,5.71,1.15
	c3.46,0,6.58-1.12,9.36-3.36c2.78-2.24,4.47-5.1,5.09-8.57l0.29-1.76h-14.87V126.19z"/>
<polygon fill="#FFFFFF" points="198.37,108.42 195.43,108.42 195.43,136.98 196.9,136.98 198.37,136.98 208.57,136.98 
	208.57,134.04 198.37,134.04 	"/>
<path fill="#FFFFFF" d="M230.29,127.95c0,1.15-0.21,2.13-0.63,2.94c-1.22,2.35-3.57,3.53-7.06,3.53c-2.25,0-4.04-0.5-5.4-1.51
	c-1.55-1.16-2.33-2.81-2.33-4.96v-19.53h-2.94v19.11c0,3.09,1.01,5.53,3.02,7.31c1.9,1.68,4.45,2.52,7.64,2.52
	c3.16,0,5.7-0.84,7.6-2.52c2.02-1.78,3.02-4.21,3.02-7.31v-19.11h-2.94V127.95z"/>
<polygon fill="#FFFFFF" points="243.52,108.34 236.59,108.34 236.59,111.07 243.52,111.07 243.52,136.9 246.46,136.9 
	246.46,111.07 253.39,111.07 253.39,108.34 246.46,108.34 	"/>
<rect x="257.38" y="108.42" fill="#FFFFFF" width="2.94" height="28.56"/>
<polygon fill="#FFFFFF" points="282.66,129.42 266.62,106.62 266.62,136.98 269.56,136.98 269.56,115.94 285.6,138.75 
	285.6,108.42 282.66,108.42 	"/>
<path fill="#FFFFFF" d="M318.85,116.91c-0.77-1.79-1.82-3.35-3.15-4.66c-1.33-1.32-2.89-2.36-4.68-3.13s-3.7-1.16-5.71-1.16
	c-2.02,0-3.91,0.39-5.69,1.16s-3.33,1.81-4.66,3.13c-1.33,1.32-2.38,2.87-3.15,4.66s-1.16,3.7-1.16,5.71
	c0,2.02,0.39,3.92,1.16,5.71c0.77,1.79,1.82,3.35,3.15,4.68c1.33,1.33,2.88,2.38,4.66,3.15c1.78,0.77,3.68,1.15,5.69,1.15
	c2.02,0,3.92-0.39,5.71-1.15c1.79-0.77,3.35-1.82,4.68-3.15c1.33-1.33,2.38-2.89,3.15-4.68c0.77-1.79,1.15-3.7,1.15-5.71
	C320,120.6,319.61,118.7,318.85,116.91z M313.62,130.94c-2.3,2.3-5.07,3.44-8.32,3.44c-3.22,0-5.98-1.15-8.27-3.44
	c-2.3-2.3-3.44-5.07-3.44-8.32c0-3.22,1.15-5.98,3.44-8.27c2.3-2.3,5.05-3.44,8.27-3.44c3.25,0,6.02,1.15,8.32,3.44
	c2.3,2.3,3.44,5.05,3.44,8.27C317.06,125.87,315.91,128.64,313.62,130.94z"/>
<path fill="#FFE7B7" d="M200.21,25.73c-1.21-1.63-3.03-2.67-4.87-3.46c-2.37-1.02-4.86-1.77-7.18-2.91
	c0.89,3.47,1.52,7.03,1.73,10.61c-1.35-3.67-2.65-7.36-4.32-10.9c-0.48-0.99-0.97-1.99-1.68-2.84c-0.73-0.95-1.38-1.95-2.09-2.92
	c-2.44-3.37-5.18-6.57-8.51-9.09c-3.1-2.36-6.82-4.06-10.76-4.22c-2.65-0.07-5.3,0.16-7.93,0.5c-4.41,0.59-8.77,1.57-13,2.93
	c-4.07,1.31-8.04,2.98-11.71,5.18c-3.29,1.98-6.36,4.41-8.7,7.48c-2.09,2.73-3.49,6.03-3.78,9.48c-0.15,1.9-0.1,3.82,0.19,5.7
	c0.34,2.18,1.07,4.35,2.41,6.12c1.32,1.78,3.28,3.03,5.4,3.64c2.75,0.79,5.69,0.73,8.46,0.14c0.74,4.99,1.46,9.98,2.19,14.97
	c5.68-2.17,11.63-3.68,17.68-4.32c4.47-0.48,9-0.29,13.44,0.4c5.11,0.79,10.14,2.12,14.99,3.92c1.54-4.98,3.07-9.97,4.58-14.96
	c3.08-0.13,6.19-0.56,9.06-1.75c1.77-0.74,3.46-1.8,4.6-3.36c1-1.34,1.49-3.02,1.46-4.69C201.87,29.41,201.43,27.34,200.21,25.73z"
	/>
<path fill="#FFE7B7" d="M184.98,77.28c-1.41,0.79-3.02,1.28-4.65,1.17c-2.23-0.14-4.31-1.01-6.34-1.86
	c-1.75-0.73-3.5-1.53-5.4-1.78c-1.32-0.17-2.65,0.01-3.93,0.34c-2.18,0.56-4.23,1.52-6.16,2.65c-1.04-0.61-2.13-1.16-3.24-1.64
	c-1.77-0.74-3.64-1.34-5.57-1.41c-1.92-0.07-3.75,0.65-5.5,1.37c-2.38,0.99-4.77,2.14-7.37,2.33c-1.59,0.14-3.19-0.3-4.59-1.03
	c-1.86-0.96-3.42-2.39-4.81-3.94c0.56,1.68,1.29,3.29,2.11,4.86c1.03,1.94,2.23,3.81,3.74,5.42c1.27,1.35,2.79,2.54,4.56,3.15
	c1.86,0.66,3.9,0.5,5.8,0.1c2.15-0.47,4.07-1.61,5.86-2.85c1.76-1.21,3.57-2.45,5.66-3.03c2.65-0.73,5.56-0.59,8.1,0.49
	c1.87,0.78,3.49,2.03,5.18,3.14c1.7,1.13,3.59,2.05,5.62,2.39c1.59,0.26,3.27,0.36,4.83-0.14c1.78-0.55,3.31-1.7,4.6-3.02
	c1.6-1.67,2.88-3.62,3.96-5.65c0.83-1.6,1.6-3.23,2.15-4.94C188.26,74.9,186.75,76.3,184.98,77.28z"/>
<polygon fill="#FFE7B7" points="76.35,131.39 69.17,104.45 58.68,132.94 61.44,133.96 68.71,114.21 75.89,141.16 86.36,112.7 
	83.6,111.68"/>
</svg>