<svg xmlns="http://www.w3.org/2000/svg" viewBox="0 0 320 180.6" width="320" height="180.6" role="img" focusable="false">
<path fill="#FFE7B7" d="M103.56,155.99c-0.04-0.02-0.07,0.23-0.1,0.33c-0.03,0.11-0.51,0.94-1.46,2.28s-2.01,2.08-2.01,2.08
	s0.26-0.84,0.84-1.58c0.58-0.74,1.17-1.23,1.29-1.37c0.12-0.15,0.19-0.3,0.15-0.41c0,0-0.26-0.19-0.6-0.22
	c-0.21-0.02-0.41,0.06-0.73,0.31c-0.28,0.22-0.55,0.54-1.11,1.28c-0.57,0.75-1.04,2.02-1.04,2.02s-0.03,0.36,0.19,0.77
	c0.19,0.36,0.53,0.63,1.05,0.53c0.42-0.08,0.86-0.49,1.6-1.36c0.75-0.88,1.5-1.91,1.5-1.91s-0.68,2.02-1.2,3.43
	s-1.66,3.53-1.93,3.9c-0.27,0.37-0.98,1.03-1.48,0.97c-0.59-0.08-0.91-0.52-0.91-0.52s0.09,0.37,0.33,0.67
	c0.2,0.24,0.5,0.46,0.67,0.53c0.48,0.21,0.8,0.18,1.2,0.07c0.34-0.09,0.91-0.43,1.37-1.29c0.62-1.17,1.75-3.73,2.61-6.21
	c0.86-2.48,0.84-2.96,0.87-3.25c0.03-0.28-0.15-0.57-0.26-0.74C104.28,156.15,103.59,156.01,103.56,155.99z M82.09,156.61
	c-0.13-0.03-0.82,0.06-1.94,0.38c-1.13,0.33-1.89,0.69-2.05,0.77c-0.17,0.09-0.25,0.4-0.24,0.74c0.02,0.39,0,0.64,0.45,0.86
	c0.45,0.22,1.07,0.25,1.41,0.27c0.34,0.01,0.68,0.06,0.68,0.06s-0.23,0.29-0.65,0.46c-0.42,0.17-0.9,0.39-1.36,0.45
	c-0.46,0.06-0.89-0.18-0.95-0.11c-0.05,0.07-0.04,0.39,0.04,0.63c0.07,0.24,0.18,0.48,0.37,0.56c0.19,0.08,1.06,0.17,2.13-0.2
	c1.07-0.37,1.49-0.66,1.59-1.17c0.1-0.51-0.07-0.65-0.3-1.02s-0.38-0.43-0.66-0.49c-0.29-0.05-0.6-0.01-0.93-0.06
	c-0.55-0.07-0.62-0.17-0.62-0.17s0.51-0.35,1.55-0.62c1.04-0.27,1.49-0.42,1.57-0.31c0.09,0.14,0.18-0.04,0.28-0.13
	c0.11-0.1,0.16-0.21,0.14-0.3c-0.01-0.07-0.16-0.18-0.18-0.25C82.34,156.74,82.25,156.65,82.09,156.61z M125.07,160.01
	c0,0,0.52,0.04,1.23-0.28c0.71-0.32,1.13-0.74,1.43-1.17c0.3-0.43,0.71-0.99,0.71-1.15s-0.29-0.51-0.62-0.62s-0.58-0.14-0.86-0.09
	c-0.28,0.05-0.78,0.31-1.45,1s-1.16,1.32-1.21,1.54c-0.05,0.22-0.15,0.61-0.06,1.02c0.1,0.41,0.18,0.66,0.51,0.98
	c0.33,0.32,0.77,0.44,1.1,0.44c0.42,0,0.62-0.09,0.94-0.25c0.19-0.09,0.54-0.31,0.78-0.62c0.24-0.32,0.32-0.49,0.35-0.55
	c0.03-0.06,0.02-0.13,0.02-0.13s-0.43,0.22-0.99,0.44s-1.04,0.34-1.28,0.35c-0.24,0.01-0.61-0.03-0.61-0.03s-0.06-0.08-0.07-0.12
	c-0.03-0.09-0.09-0.34-0.05-0.46C124.99,160.18,125.07,160.01,125.07,160.01z M125.79,158.86c0.09-0.11,0.48-0.52,0.67-0.68
	s0.6-0.4,0.6-0.4s-0.17,0.25-0.3,0.4s-0.51,0.54-0.64,0.65s-0.59,0.35-0.59,0.35S125.69,158.96,125.79,158.86z M110.89,151.6
	c-0.19-0.06-0.39-0.09-0.39-0.09s-0.23,0.29-0.46,0.72c-0.3,0.56-0.66,1.42-1.15,2.85c-0.87,2.51-0.96,2.86-1.45,4.67
	c-0.49,1.81-0.76,3.35-0.79,3.76s0.2,0.93,0.46,1.21c0.28,0.31,0.53,0.43,0.78,0.4c0.15-0.02,0.23-0.06,0.23-0.06
	s0.1-0.19,0.08-0.49c-0.02-0.3-0.05-0.43-0.05-0.43s-0.06,0.02-0.11,0.05c-0.06,0.04-0.07,0.11-0.12,0.14
	c-0.07,0.04-0.16,0.04-0.16,0.04s-0.07-0.88,0.08-1.66c0.15-0.78,0.56-2.18,0.86-3.28c0.38-1.38,1.31-4.06,1.8-5.28
	c0.43-1.07,0.65-1.69,0.72-1.81c0.07-0.12,0.14-0.25,0.14-0.25s0.01-0.1-0.11-0.27C111.13,151.66,111.08,151.65,110.89,151.6z
	 M74.5,157.85c-0.57-0.29-0.74-0.01-0.74-0.01s0.17-0.47-0.31-0.8c-0.44-0.3-0.92-0.31-0.92-0.31s-1.12,0.43-2.04,1.98
	c-0.34,0.57-0.67,1.34-0.78,1.68c-0.14,0.44-0.1,0.86-0.1,0.86s0.39,0.65,0.61,0.8c0.23,0.14,0.59,0.29,0.89,0.18
	c0.42-0.16,0.88-0.69,1.21-1.12c0.33-0.43,1.48-1.83,1.48-1.83s-0.17,0.92-0.11,1.21c0.06,0.28,0.12,0.57,0.28,0.62
	c0.16,0.05,0.27-0.24,0.44-0.62c0.18-0.38,0.64-1.2,0.68-1.73C75.13,158.22,74.82,158.01,74.5,157.85z M72.57,159.17
	c-0.45,0.48-0.81,0.95-1.06,1.26c-0.25,0.3-0.81,0.74-0.81,0.74s0.2-0.63,0.35-1.06c0.19-0.53,0.61-1.09,1.04-1.65
	c0.51-0.67,0.94-0.88,0.94-0.88s0.03,0.1,0.04,0.2c0.01,0.09-0.02,0.21,0.02,0.25c0.07,0.06,0.5-0.03,0.5-0.03
	S73.03,158.67,72.57,159.17z M115.6,158.23c-0.21-0.1-0.45-0.19-0.45-0.19s-0.25,0.32-0.47,0.59c-0.19,0.25-0.68,0.77-0.86,0.97
	c-0.18,0.2-0.33,0.45-0.59,0.61c-0.17,0.1-0.32,0.15-0.32,0.15s-0.02-0.91,0.32-1.84c0.34-0.93,0.55-1.42,0.55-1.42
	s0-0.1-0.12-0.26c-0.12-0.17-0.4-0.26-0.58-0.34c-0.19-0.08-0.28-0.11-0.28-0.11s-0.4,0.53-0.61,1.36
	c-0.26,1.01-0.28,2.18-0.28,2.18s0.29,0.86,0.49,1.12c0.19,0.24,0.55,0.44,0.84,0.44c0.27,0,0.65-0.17,0.94-0.46
	c0.29-0.29,0.48-0.64,0.61-0.81c0.14-0.17,0.35-0.38,0.35-0.38s0.05,0.41,0.16,0.82c0.1,0.35,0.29,0.56,0.45,0.68
	c0.14,0.11,0.16,0.12,0.23,0.09c0.05-0.02,0.09-0.04,0.09-0.04s-0.03-0.23,0-0.55c0.03-0.31,0.11-0.54,0.19-1.28
	c0.08-0.74-0.19-1.06-0.19-1.06S115.81,158.32,115.6,158.23z M252.19,156.56c0,0-0.16-0.06-0.28-0.12s-0.35-0.17-0.47-0.19
	c-0.12-0.02-0.28-0.01-0.28-0.01s-0.52,0.67-0.71,0.95c-0.19,0.28-0.53,0.57-0.64,0.67c-0.11,0.1-0.2,0.17-0.2,0.17
	s-0.12-0.11-0.28-0.15c-0.16-0.04-0.38-0.05-0.38-0.05s-0.16,0.45-0.42,1.02c-0.25,0.57-0.52,1.1-0.73,1.61
	c-0.21,0.51-0.39,1.09-0.39,1.09s0.11,0.33,0.41,0.53s0.51,0.15,0.51,0.15s0.71-1.47,1.41-2.55c0.71-1.08,1.63-2.35,1.66-2.29
	c0.02,0.05-0.08,0.73-0.12,1c-0.08,0.49-0.11,1.33-0.06,1.68c0.05,0.35,0.16,0.63,0.24,0.72c0.03,0.04,0.13,0.03,0.21,0
	c0.1-0.04,0.15-0.07,0.21-0.31c0.06-0.24,0.13-0.57,0.15-0.73c0.03-0.16,0.17-0.95,0.26-1.22c0.09-0.28,0.24-0.72,0.26-0.84
	c0.04-0.2-0.03-0.5-0.11-0.7C252.33,156.7,252.19,156.56,252.19,156.56z M230.52,152.01c0.02-0.11-0.38-0.07-3.81,0.06
	c-3.43,0.13-6.47,0.68-8.15,0.93c-0.2,0.03-0.41,0.07-0.62,0.1c0.2-0.67,0.39-1.35,0.46-1.73c0.12-0.68,0.05-1.08,0.05-1.08
	s-0.14-0.11-0.3-0.26c-0.15-0.13-0.46-0.12-0.46-0.12s-0.02,0.36-0.16,1.09c-0.11,0.57-0.44,1.54-0.68,2.33
	c-1.22,0.29-2.46,0.67-3.4,1.03c-0.81,0.31-1.59,0.74-1.96,1.17c-0.15,0.18-0.13,0.35-0.13,0.35s0.09,0.04,0.22,0.11
	c0.13,0.07,0.21,0.17,0.38,0.21c0.2,0.05,0.28,0,0.28,0s0.12-0.23,0.22-0.34c0.14-0.16,0.31-0.21,0.64-0.38
	c0.45-0.23,1.15-0.42,2.01-0.65c0.45-0.12,0.91-0.24,1.43-0.36c-0.35,1.35-1.17,4.35-1.58,5.77c-0.48,1.66-1.42,5.05-1.61,5.68
	c-0.25,0.84-0.73,2.09-0.93,2.4s-0.38,0.57-0.38,0.57s0.47,0.06,0.68-0.06c0.43-0.24,0.66-0.79,1.03-1.48
	c0.37-0.69,1.21-3.23,1.88-6.02c0.26-1.08,1.22-4.39,1.85-6.68c0.03-0.12,0.07-0.26,0.12-0.41c0.38-0.08,0.79-0.15,1.26-0.24
	c1.71-0.32,3.74-0.7,5.37-0.89c1.42-0.16,1.77-0.16,2.12-0.26c0.46-0.14,0.9-0.32,1.33-0.38
	C229.03,152.28,230.49,152.12,230.52,152.01z M267.3,152.07c-3.43,0.13-6.47,0.68-8.15,0.93c-0.2,0.03-0.41,0.07-0.62,0.1
	c0.2-0.67,0.39-1.35,0.46-1.73c0.12-0.68,0.05-1.08,0.05-1.08s-0.14-0.11-0.3-0.26c-0.15-0.13-0.46-0.12-0.46-0.12
	s-0.02,0.36-0.16,1.09c-0.11,0.57-0.44,1.54-0.68,2.33c-1.22,0.29-2.46,0.67-3.4,1.03c-0.81,0.31-1.59,0.74-1.96,1.17
	c-0.15,0.18-0.13,0.35-0.13,0.35s0.09,0.04,0.22,0.11c0.13,0.07,0.21,0.17,0.38,0.21c0.2,0.05,0.28,0,0.28,0s0.12-0.23,0.22-0.34
	c0.14-0.16,0.31-0.21,0.64-0.38c0.45-0.23,1.15-0.42,2.01-0.65c0.45-0.12,0.91-0.24,1.43-0.36c-0.35,1.35-1.17,4.35-1.58,5.77
	c-0.48,1.66-1.42,5.05-1.61,5.68c-0.25,0.84-0.73,2.09-0.93,2.4c-0.19,0.31-0.38,0.57-0.38,0.57s0.47,0.06,0.68-0.06
	c0.43-0.24,0.66-0.79,1.03-1.48c0.37-0.69,1.21-3.23,1.88-6.02c0.26-1.08,1.22-4.39,1.85-6.68c0.03-0.12,0.07-0.26,0.12-0.41
	c0.38-0.08,0.79-0.15,1.26-0.24c1.71-0.32,3.74-0.7,5.37-0.89c1.42-0.16,1.77-0.16,2.12-0.26c0.46-0.14,0.9-0.32,1.33-0.38
	c1.36-0.2,2.81-0.36,2.84-0.47C271.14,151.9,270.73,151.94,267.3,152.07z M203.21,156.7c-0.28,0.05-0.78,0.31-1.45,1
	c-0.67,0.7-1.16,1.32-1.21,1.54c-0.05,0.22-0.15,0.61-0.06,1.02c0.1,0.41,0.18,0.66,0.51,0.98c0.33,0.32,0.77,0.44,1.1,0.44
	c0.42,0,0.62-0.09,0.94-0.25c0.19-0.09,0.54-0.31,0.78-0.62c0.24-0.32,0.32-0.49,0.35-0.55c0.03-0.06,0.02-0.13,0.02-0.13
	s-0.43,0.22-0.99,0.44s-1.04,0.34-1.28,0.35c-0.24,0.01-0.61-0.03-0.61-0.03s-0.06-0.08-0.07-0.12c-0.03-0.09-0.09-0.34-0.05-0.46
	c0.04-0.12,0.12-0.29,0.12-0.29s0.52,0.04,1.23-0.28c0.71-0.32,1.13-0.74,1.43-1.17c0.3-0.43,0.71-0.99,0.71-1.15
	s-0.29-0.51-0.62-0.62S203.49,156.65,203.21,156.7z M203,158.18c-0.13,0.15-0.51,0.54-0.64,0.65s-0.59,0.35-0.59,0.35
	s0.17-0.22,0.26-0.32c0.09-0.11,0.48-0.52,0.67-0.68s0.6-0.4,0.6-0.4S203.13,158.03,203,158.18z M61.18,148.45
	c-3.6-0.19-7.9,1.6-9.57,2.82c-0.19,0.14-0.51,0.54-0.51,0.95c0,0.51,0.49,0.95,0.72,0.37c0.09-0.23,0.4-0.7,1-1
	c2.21-1.11,4.86-2.39,8.4-2.24c3.02,0.13,6.82,1.59,6.47,5.31c-0.34,3.72-5.02,8.11-8.54,10.19c-4.26,2.52-8.19,4.47-11.74,2.85
	c-1.39-0.63-1.23-2.18-1.03-2.82c0.19-0.63,0.2-1.05-0.04-1.21c-0.16-0.1-0.65,0.68-0.66,1.54c-0.02,0.93,0.26,2.39,1.56,3.04
	c1.31,0.65,4.11,2.24,10.2-1.13c6.3-3.48,10.94-8.53,11.1-11.8C68.84,149.48,64.11,148.6,61.18,148.45z M56.15,154.86
	c0.02-0.27-0.74-0.73-0.82-0.44c-0.11,0.37-0.15,1.13-0.35,1.67c-0.6,1.59-0.91,2.23-1.39,3.46c-0.54,1.39-1.48,2.95-1.48,2.95
	s0.6-0.09,2.07-2.54C55,158.6,56.01,156.54,56.15,154.86z M207.71,161.67c0.19,0.08,1.06,0.17,2.13-0.2
	c1.07-0.37,1.49-0.66,1.59-1.17c0.1-0.51-0.07-0.65-0.3-1.02s-0.38-0.43-0.66-0.49c-0.29-0.05-0.6-0.01-0.93-0.06
	c-0.55-0.07-0.62-0.17-0.62-0.17s0.51-0.35,1.55-0.62c1.04-0.27,1.49-0.42,1.57-0.31c0.09,0.14,0.18-0.04,0.28-0.13
	c0.11-0.1,0.16-0.21,0.14-0.3c-0.01-0.07-0.16-0.18-0.18-0.25c-0.08-0.21-0.17-0.3-0.33-0.34c-0.13-0.03-0.82,0.06-1.94,0.38
	c-1.13,0.33-1.89,0.69-2.05,0.77c-0.17,0.09-0.25,0.4-0.24,0.74c0.02,0.39,0,0.64,0.45,0.86c0.45,0.22,1.07,0.25,1.41,0.27
	c0.34,0.01,0.68,0.06,0.68,0.06s-0.23,0.29-0.65,0.46c-0.42,0.17-0.9,0.39-1.36,0.45c-0.46,0.06-0.89-0.18-0.95-0.11
	c-0.05,0.07-0.04,0.39,0.04,0.63C207.41,161.35,207.52,161.59,207.71,161.67z M132.27,152.48c1.36-0.2,2.81-0.36,2.84-0.47
	c0.02-0.11-0.38-0.07-3.81,0.06c-3.43,0.13-6.47,0.68-8.15,0.93c-0.2,0.03-0.41,0.07-0.62,0.1c0.2-0.67,0.39-1.35,0.46-1.73
	c0.12-0.68,0.05-1.08,0.05-1.08s-0.14-0.11-0.3-0.26c-0.15-0.13-0.46-0.12-0.46-0.12s-0.02,0.36-0.16,1.09
	c-0.11,0.57-0.44,1.54-0.68,2.33c-1.22,0.29-2.46,0.67-3.4,1.03c-0.81,0.31-1.59,0.74-1.96,1.17c-0.15,0.18-0.13,0.35-0.13,0.35
	s0.09,0.04,0.22,0.11c0.13,0.07,0.21,0.17,0.38,0.21c0.2,0.05,0.28,0,0.28,0s0.12-0.23,0.22-0.34c0.14-0.16,0.31-0.21,0.64-0.38
	c0.45-0.23,1.15-0.42,2.01-0.65c0.45-0.12,0.91-0.24,1.43-0.36c-0.35,1.35-1.17,4.35-1.58,5.77c-0.48,1.66-1.42,5.05-1.61,5.68
	c-0.25,0.84-0.73,2.09-0.93,2.4s-0.38,0.57-0.38,0.57s0.47,0.06,0.68-0.06c0.43-0.24,0.66-0.79,1.03-1.48
	c0.37-0.69,1.21-3.23,1.88-6.02c0.26-1.08,1.22-4.39,1.85-6.68c0.03-0.12,0.07-0.26,0.12-0.41c0.38-0.08,0.79-0.15,1.26-0.24
	c1.71-0.32,3.75-0.7,5.37-0.89c1.42-0.16,1.77-0.16,2.12-0.26C131.4,152.72,131.84,152.54,132.27,152.48z M236.69,157.23
	c-0.52,0.23-0.91,0.6-0.91,0.6s-0.27-0.17-0.43-0.19s-0.28,0.04-0.28,0.04s0.02,0.26,0.01,0.43s-0.01,0.43-0.27,1.13
	s-0.45,1.18-0.47,1.25c-0.02,0.07-0.02,0.19,0,0.26c0.01,0.05,0.07,0.11,0.13,0.34c0.06,0.23,0.12,0.44,0.23,0.58
	c0.11,0.13,0.17,0.23,0.44,0.24c0.07,0,0.14-0.09,0.18-0.21c0.03-0.12,0.03-0.33,0.17-0.85s0.49-1.57,1.12-2.28
	c0.64-0.71,1.48-1,1.81-1.11c0.25-0.08,0.53-0.31,0.68-0.43s0.27-0.23,0.31-0.28c0.04-0.05,0.07-0.11,0.07-0.11
	s-0.57,0.04-1.23,0.14C237.73,156.86,237.17,157.02,236.69,157.23z M162.9,160.01c0,0,0.52,0.04,1.23-0.28s1.13-0.74,1.43-1.17
	c0.3-0.43,0.71-0.99,0.71-1.15c0-0.16-0.29-0.51-0.62-0.62s-0.58-0.14-0.86-0.09c-0.28,0.05-0.78,0.31-1.45,1s-1.16,1.32-1.21,1.54
	c-0.05,0.22-0.15,0.61-0.06,1.02c0.1,0.41,0.18,0.66,0.51,0.98c0.33,0.32,0.77,0.44,1.1,0.44c0.42,0,0.62-0.09,0.94-0.25
	c0.19-0.09,0.54-0.31,0.78-0.62c0.24-0.32,0.32-0.49,0.35-0.55c0.03-0.06,0.02-0.13,0.02-0.13s-0.43,0.22-0.99,0.44
	s-1.04,0.34-1.28,0.35c-0.24,0.01-0.61-0.03-0.61-0.03s-0.06-0.08-0.07-0.12c-0.03-0.09-0.09-0.34-0.05-0.46
	S162.9,160.01,162.9,160.01z M163.62,158.86c0.09-0.11,0.48-0.52,0.67-0.68s0.6-0.4,0.6-0.4s-0.17,0.25-0.3,0.4
	s-0.51,0.54-0.64,0.65c-0.13,0.11-0.59,0.35-0.59,0.35S163.52,158.96,163.62,158.86z M210.52,174.46c-1.86-1.88-1.69-1.9-4.84-4.21
	c-3.15-2.3-4.8-3.19-7.09-4.64s-5.46-3.04-7.65-4.16c-0.97-0.5-2.23-0.93-3.35-1.26c0.11-0.3,0.28-0.72,0.46-1.18
	c0.27-0.05,0.55-0.1,0.85-0.15c2.58-0.47,3.81-1.01,6.29-1.66c2.48-0.65,5.26-1.82,6.79-2.95c1.53-1.14,2.17-3.05,2.12-4.07
	c-0.05-1.02-0.26-2.97-1.76-3.9c-1.5-0.93-3.33-2.12-7.37-1.86c-4.04,0.26-6.68,1.77-7.54,2.33c-0.86,0.56-1.57,1.27-2.25,2.04
	c-0.56,0.63-0.79,1.82-0.81,1.95c-0.01,0.12,0.17,0.35,0.33,0.44c0.18,0.11,0.3,0.14,0.44,0.07c0.14-0.08,0.21-0.27,0.28-0.46
	c0.07-0.19,0.33-0.71,0.72-1.26s0.59-0.79,1.39-1.39c0.8-0.59,2.13-1.31,4.33-2.1c1.49-0.53,3.88-0.74,5.29-0.65
	s3.47,0.89,4.35,1.33c0.88,0.44,1.78,1.73,2.15,2.73c0.37,1-0.24,1.88-0.62,2.41c-0.38,0.53-2.14,2.08-4.36,2.98
	c-2.21,0.89-6.69,2.12-9.11,2.66c-0.3,0.07-0.63,0.14-0.98,0.21c0.09-0.23,0.17-0.43,0.23-0.59c0.28-0.76,0.63-1.55,0.65-2.08
	c0.02-0.51,0-0.78-0.04-0.87c-0.07-0.17-0.26-0.37-0.46-0.48c-0.2-0.1-0.49-0.26-0.49-0.26s0.14,0.41,0.12,0.62
	c-0.04,0.37-0.1,0.94-0.45,1.83c-0.11,0.28-0.43,1.18-0.75,2.08c-2.33,0.46-5.02,0.93-5.57,0.96c-0.75,0.04-0.87,0.1-0.9,0.13
	c-0.02,0.03,0.02,0.13,0.03,0.28c0,0.18-0.01,0.29,0,0.41c0.01,0.12,0.27,0.18,1.07,0.26c0.81,0.08,2.15,0.24,3.76,0.61
	c0.19,0.04,0.39,0.1,0.6,0.15c-0.26,0.79-0.5,1.58-0.56,1.78c-0.11,0.36-0.21,0.83-0.27,1.03c-0.07,0.24-0.23,0.38-0.23,0.38
	s0.02,0.11,0.13,0.24c0.15,0.16,0.44,0.09,0.55,0.04c0.16-0.07,0.25-0.09,0.29-0.16c0.12-0.21,0.3-0.83,0.5-1.48
	c0.14-0.43,0.32-1.01,0.51-1.56c1.35,0.44,2.9,1.08,4.38,1.83c2.99,1.5,5.07,2.76,7.51,4.31c2.44,1.55,6.06,4.18,7.97,5.7
	s5,4.82,5.46,5.48c0.46,0.66,1.43,2.24,1.43,2.24s0.14-0.15,0.12-0.66c-0.01-0.24-0.15-0.69-0.38-1.33
	C213.55,177.97,212.38,176.35,210.52,174.46z M186.75,159.67c-0.03,0.08-0.06,0.17-0.1,0.26c-0.94-0.25-1.62-0.4-1.62-0.4
	s0.63-0.1,1.88-0.32C186.86,159.39,186.8,159.54,186.75,159.67z M231.04,158.23c-0.21-0.1-0.45-0.19-0.45-0.19
	s-0.25,0.32-0.47,0.59c-0.19,0.25-0.68,0.77-0.86,0.97c-0.18,0.2-0.33,0.45-0.59,0.61c-0.17,0.1-0.32,0.15-0.32,0.15
	s-0.02-0.91,0.32-1.84c0.34-0.93,0.55-1.42,0.55-1.42s0-0.1-0.12-0.26c-0.12-0.17-0.4-0.26-0.58-0.34
	c-0.19-0.08-0.28-0.11-0.28-0.11s-0.4,0.53-0.61,1.36c-0.26,1.01-0.28,2.18-0.28,2.18s0.29,0.86,0.49,1.12
	c0.19,0.24,0.55,0.44,0.84,0.44c0.27,0,0.65-0.17,0.94-0.46c0.29-0.29,0.48-0.64,0.61-0.81c0.14-0.17,0.35-0.38,0.35-0.38
	s0.05,0.41,0.16,0.82c0.1,0.35,0.29,0.56,0.45,0.68c0.14,0.11,0.16,0.12,0.23,0.09c0.05-0.02,0.09-0.04,0.09-0.04
	s-0.03-0.23,0-0.55c0.03-0.31,0.11-0.54,0.19-1.28c0.08-0.74-0.19-1.06-0.19-1.06S231.25,158.32,231.04,158.23z M224.09,157.85
	c-0.57-0.29-0.74-0.01-0.74-0.01s0.17-0.47-0.31-0.8c-0.44-0.3-0.92-0.31-0.92-0.31s-1.12,0.43-2.04,1.98
	c-0.34,0.57-0.67,1.34-0.78,1.68c-0.14,0.44-0.1,0.86-0.1,0.86s0.39,0.65,0.61,0.8c0.23,0.14,0.59,0.29,0.89,0.18
	c0.42-0.16,0.88-0.69,1.21-1.12c0.33-0.43,1.48-1.83,1.48-1.83s-0.17,0.92-0.11,1.21s0.12,0.57,0.28,0.62
	c0.16,0.05,0.27-0.24,0.44-0.62c0.18-0.38,0.64-1.2,0.68-1.73C224.73,158.22,224.42,158.01,224.09,157.85z M222.17,159.17
	c-0.45,0.48-0.81,0.95-1.06,1.26c-0.25,0.3-0.81,0.74-0.81,0.74s0.2-0.63,0.35-1.06c0.19-0.53,0.61-1.09,1.04-1.65
	c0.51-0.67,0.94-0.88,0.94-0.88s0.03,0.1,0.04,0.2c0.01,0.09-0.02,0.21,0.02,0.25c0.07,0.06,0.5-0.03,0.5-0.03
	S222.63,158.67,222.17,159.17z M159.26,153.57c-0.12-0.01-0.22,0.01-0.35,0.04c-0.12,0.03-0.27,0.22-0.34,0.42
	c-0.07,0.2-0.12,0.49-0.12,0.74c-0.01,0.25-0.08,0.57-0.08,0.57s0.09,0.02,0.22,0.02c0.11,0,0.26-0.03,0.43-0.14
	c0.16-0.1,0.3-0.32,0.35-0.45c0.1-0.25,0.13-0.52,0.1-0.75c-0.03-0.23-0.05-0.31-0.07-0.36
	C159.39,153.61,159.38,153.59,159.26,153.57z M144,151.96c0.2-0.23,0.22-0.43,0.22-0.43s-0.1-0.15-0.34-0.41
	c-0.18-0.19-0.42-0.21-0.49-0.18c-0.37,0.2-1.31,1.22-2.33,3.25c-1.02,2.01-1.2,2.1-1.65,3.22s-0.84,2.07-0.95,2.21
	c-0.11,0.15-0.37,0.27-0.63,0.38c-0.26,0.11-0.43,0.21-0.43,0.21s0.01,0.34,0.3,0.44s0.3,0.27,0.3,0.27s-0.65,1.42-1.03,2.8
	c-0.38,1.39-0.68,2.31-0.57,3.08c0.06,0.42,0.22,0.86,0.58,1.13c0.24,0.19,0.37,0.19,0.51,0.2c0.14,0.01,0.25,0.03,0.19-0.05
	c-0.06-0.08-0.2-0.28-0.24-0.54c-0.04-0.25,0.15-2.14,0.91-4.1s1.31-3.18,1.31-3.18s0.62-0.33,0.89-0.5
	c0.26-0.17,0.52-0.34,0.63-0.54c0.1-0.2,0.17-0.31,0.13-0.35s-0.07-0.06-0.07-0.06s-0.25,0.06-0.41,0.12
	c-0.16,0.06-0.3,0.12-0.42,0.11c-0.12-0.01-0.2-0.03-0.2-0.03s1.17-2.44,1.98-4.07C142.57,154.13,143.5,152.54,144,151.96z
	 M135.32,156.56c0,0-0.16-0.06-0.28-0.12s-0.35-0.17-0.47-0.19c-0.12-0.02-0.28-0.01-0.28-0.01s-0.52,0.67-0.71,0.95
	c-0.19,0.28-0.53,0.57-0.64,0.67s-0.2,0.17-0.2,0.17s-0.12-0.11-0.28-0.15c-0.16-0.04-0.38-0.05-0.38-0.05s-0.16,0.45-0.42,1.02
	c-0.25,0.57-0.52,1.1-0.73,1.61s-0.39,1.09-0.39,1.09s0.11,0.33,0.41,0.53c0.29,0.2,0.51,0.15,0.51,0.15s0.71-1.47,1.41-2.55
	c0.71-1.08,1.63-2.35,1.66-2.29c0.02,0.05-0.08,0.73-0.12,1c-0.09,0.49-0.11,1.33-0.06,1.68c0.05,0.35,0.16,0.63,0.24,0.72
	c0.03,0.04,0.13,0.03,0.21,0c0.1-0.04,0.15-0.07,0.21-0.31c0.06-0.24,0.13-0.57,0.15-0.73c0.03-0.16,0.17-0.95,0.26-1.22
	c0.09-0.28,0.24-0.72,0.26-0.84c0.04-0.2-0.03-0.5-0.11-0.7C135.47,156.7,135.32,156.56,135.32,156.56z M146.08,157.23
	c-0.52,0.23-0.91,0.6-0.91,0.6s-0.27-0.17-0.43-0.19c-0.15-0.02-0.28,0.04-0.28,0.04s0.02,0.26,0.01,0.43s-0.01,0.43-0.27,1.13
	c-0.26,0.7-0.45,1.18-0.47,1.25c-0.02,0.07-0.02,0.19,0,0.26c0.01,0.05,0.07,0.11,0.13,0.34c0.06,0.23,0.12,0.44,0.23,0.58
	c0.11,0.13,0.17,0.23,0.44,0.24c0.07,0,0.14-0.09,0.18-0.21c0.03-0.12,0.03-0.33,0.17-0.85s0.49-1.57,1.12-2.28s1.48-1,1.81-1.11
	c0.25-0.08,0.53-0.31,0.68-0.43c0.14-0.12,0.27-0.23,0.31-0.28c0.04-0.05,0.07-0.11,0.07-0.11s-0.57,0.04-1.23,0.14
	C147.12,156.86,146.56,157.02,146.08,157.23z M158.06,160.66c-0.11,0.12-0.39,0.38-0.39,0.38s0.45-1.6,0.65-2.08
	s0.42-0.92,0.45-1.31c0.04-0.38-0.07-0.74-0.07-0.74s-0.22-0.2-0.48-0.2c-0.18,0-0.34,0.07-0.39,0.19
	c-0.05,0.12-0.07,0.19-0.2,0.67c-0.13,0.48-0.21,0.82-0.36,1.27s-0.25,0.69-0.42,1.25c-0.17,0.58-0.22,1.31-0.22,1.31
	s0.12,0.34,0.3,0.5c0.17,0.16,0.32,0.22,0.43,0.22c0.11,0,0.22-0.02,0.22-0.02s0.52-0.45,0.78-1.02c0.23-0.51,0.61-1.09,0.66-1.18
	c0.05-0.09,0.04-0.16,0.04-0.16s-0.32,0.21-0.5,0.39C158.36,160.33,158.17,160.54,158.06,160.66z M244.89,157.85
	c-0.57-0.29-0.74-0.01-0.74-0.01s0.17-0.47-0.31-0.8c-0.44-0.3-0.92-0.31-0.92-0.31s-1.12,0.43-2.04,1.98
	c-0.34,0.57-0.67,1.34-0.78,1.68c-0.14,0.44-0.1,0.86-0.1,0.86s0.39,0.65,0.61,0.8c0.23,0.14,0.59,0.29,0.89,0.18
	c0.42-0.16,0.88-0.69,1.21-1.12c0.33-0.43,1.48-1.83,1.48-1.83s-0.17,0.92-0.11,1.21c0.06,0.28,0.12,0.57,0.28,0.62
	c0.16,0.05,0.27-0.24,0.44-0.62c0.18-0.38,0.64-1.2,0.68-1.73C245.53,158.22,245.21,158.01,244.89,157.85z M242.97,159.17
	c-0.45,0.48-0.81,0.95-1.06,1.26c-0.25,0.3-0.81,0.74-0.81,0.74s0.2-0.63,0.35-1.06c0.19-0.53,0.61-1.09,1.04-1.65
	c0.51-0.67,0.94-0.88,0.94-0.88s0.03,0.1,0.04,0.2c0.01,0.09-0.02,0.21,0.02,0.25c0.07,0.06,0.5-0.03,0.5-0.03
	S243.43,158.67,242.97,159.17z M150.64,160.01c0,0,0.52,0.04,1.23-0.28s1.13-0.74,1.43-1.17c0.3-0.43,0.71-0.99,0.71-1.15
	s-0.29-0.51-0.62-0.62s-0.58-0.14-0.86-0.09c-0.28,0.05-0.78,0.31-1.45,1s-1.16,1.32-1.21,1.54c-0.05,0.22-0.15,0.61-0.06,1.02
	c0.1,0.41,0.18,0.66,0.51,0.98c0.33,0.32,0.77,0.44,1.1,0.44c0.42,0,0.62-0.09,0.94-0.25c0.19-0.09,0.54-0.31,0.78-0.62
	c0.24-0.32,0.32-0.49,0.35-0.55s0.02-0.13,0.02-0.13s-0.43,0.22-0.99,0.44s-1.04,0.34-1.28,0.35c-0.24,0.01-0.61-0.03-0.61-0.03
	s-0.06-0.08-0.07-0.12c-0.03-0.09-0.09-0.34-0.05-0.46S150.64,160.01,150.64,160.01z M151.35,158.86c0.09-0.11,0.48-0.52,0.67-0.68
	c0.19-0.16,0.6-0.4,0.6-0.4s-0.17,0.25-0.3,0.4c-0.13,0.15-0.51,0.54-0.64,0.65s-0.59,0.35-0.59,0.35S151.26,158.96,151.35,158.86z
	"/>
<path fill="#FFE7B7" d="M184.98,77.28c-1.41,0.79-3.02,1.28-4.65,1.17c-2.23-0.14-4.31-1.01-6.34-1.86
	c-1.75-0.73-3.5-1.53-5.4-1.78c-1.32-0.17-2.65,0.01-3.93,0.34c-2.18,0.56-4.23,1.52-6.16,2.65c-1.04-0.61-2.13-1.16-3.24-1.64
	c-1.77-0.74-3.64-1.34-5.57-1.41c-1.92-0.07-3.75,0.65-5.5,1.37c-2.38,0.99-4.77,2.14-7.37,2.33c-1.59,0.14-3.19-0.3-4.59-1.03
	c-1.86-0.96-3.42-2.39-4.81-3.94c0.56,1.68,1.29,3.29,2.11,4.86c1.03,1.94,2.23,3.81,3.74,5.42c1.27,1.35,2.79,2.54,4.56,3.15
	c1.86,0.66,3.9,0.5,5.8,0.1c2.15-0.47,4.07-1.61,5.86-2.85c1.76-1.21,3.57-2.45,5.66-3.03c2.65-0.73,5.56-0.59,8.1,0.49
	c1.87,0.78,3.49,2.03,5.18,3.14c1.7,1.13,3.59,2.05,5.62,2.39c1.59,0.26,3.27,0.36,4.83-0.14c1.78-0.55,3.31-1.7,4.6-3.02
	c1.6-1.67,2.88-3.62,3.96-5.65c0.83-1.6,1.6-3.23,2.15-4.94C188.26,74.9,186.75,76.3,184.98,77.28z M200.21,25.73
	c-1.21-1.63-3.03-2.67-4.87-3.46c-2.37-1.02-4.86-1.77-7.18-2.91c0.89,3.47,1.52,7.03,1.73,10.61c-1.35-3.67-2.65-7.36-4.32-10.9
	c-0.48-0.99-0.97-1.99-1.68-2.84c-0.73-0.95-1.38-1.95-2.09-2.92c-2.44-3.37-5.18-6.57-8.51-9.09c-3.1-2.36-6.82-4.06-10.76-4.22
	c-2.65-0.07-5.3,0.16-7.93,0.5c-4.41,0.59-8.77,1.57-13,2.93c-4.07,1.31-8.04,2.98-11.71,5.18c-3.29,1.98-6.36,4.41-8.7,7.48
	c-2.09,2.73-3.49,6.03-3.78,9.48c-0.15,1.9-0.1,3.82,0.19,5.7c0.34,2.18,1.07,4.35,2.41,6.12c1.32,1.78,3.28,3.03,5.4,3.64
	c2.75,0.79,5.69,0.73,8.46,0.14c0.74,4.99,1.46,9.98,2.19,14.97c5.68-2.17,11.63-3.68,17.68-4.32c4.47-0.48,9-0.29,13.44,0.4
	c5.11,0.79,10.14,2.12,14.99,3.92c1.54-4.98,3.07-9.97,4.58-14.96c3.08-0.13,6.19-0.56,9.06-1.75c1.77-0.74,3.46-1.8,4.6-3.36
	c1-1.34,1.49-3.02,1.46-4.69C201.87,29.41,201.43,27.34,200.21,25.73z"/>
<path fill="#FFFFFF" d="M108.49,129.42l-16.04-22.81v30.37h2.94v-21.04l16.04,22.81v-30.32h-2.94V129.42z M141.52,112.25
	c-1.33-1.32-2.89-2.36-4.68-3.13s-3.7-1.16-5.71-1.16c-2.02,0-3.91,0.39-5.69,1.16c-1.78,0.77-3.33,1.81-4.66,3.13
	c-1.33,1.32-2.38,2.87-3.15,4.66s-1.16,3.7-1.16,5.71c0,2.02,0.39,3.92,1.16,5.71c0.77,1.79,1.82,3.35,3.15,4.68
	s2.88,2.38,4.66,3.15c1.78,0.77,3.68,1.15,5.69,1.15c2.02,0,3.92-0.39,5.71-1.15c1.79-0.77,3.35-1.82,4.68-3.15
	c1.33-1.33,2.38-2.89,3.15-4.68c0.77-1.79,1.15-3.7,1.15-5.71c0-2.02-0.39-3.92-1.15-5.71
	C143.9,115.12,142.85,113.56,141.52,112.25z M139.44,130.94c-2.3,2.3-5.07,3.44-8.32,3.44c-3.22,0-5.98-1.15-8.27-3.44
	c-2.3-2.3-3.44-5.07-3.44-8.32c0-3.22,1.15-5.98,3.44-8.27c2.3-2.3,5.05-3.44,8.27-3.44c3.25,0,6.02,1.15,8.32,3.44
	c2.3,2.3,3.44,5.05,3.44,8.27C142.88,125.87,141.74,128.64,139.44,130.94z M16.04,129.42L0,106.62v30.37h2.94v-21.04l16.04,22.81
	v-30.32h-2.94V129.42z M49.08,112.25c-1.33-1.32-2.89-2.36-4.68-3.13c-1.79-0.77-3.7-1.16-5.71-1.16s-3.91,0.39-5.69,1.16
	c-1.78,0.77-3.33,1.81-4.66,3.13c-1.33,1.32-2.38,2.87-3.15,4.66s-1.16,3.7-1.16,5.71c0,2.02,0.39,3.92,1.16,5.71
	c0.77,1.79,1.82,3.35,3.15,4.68s2.88,2.38,4.66,3.15c1.78,0.77,3.68,1.15,5.69,1.15s3.92-0.39,5.71-1.15
	c1.79-0.77,3.35-1.82,4.68-3.15c1.33-1.33,2.38-2.89,3.15-4.68c0.77-1.79,1.16-3.7,1.16-5.71c0-2.02-0.39-3.92-1.16-5.71
	C51.46,115.12,50.41,113.56,49.08,112.25z M47,130.94c-2.3,2.3-5.07,3.44-8.32,3.44c-3.22,0-5.98-1.15-8.27-3.44
	c-2.3-2.3-3.44-5.07-3.44-8.32c0-3.22,1.15-5.98,3.44-8.27c2.3-2.3,5.05-3.44,8.27-3.44c3.25,0,6.02,1.15,8.32,3.44
	c2.3,2.3,3.44,5.05,3.44,8.27C50.44,125.87,49.29,128.64,47,130.94z M257.38,136.98h2.94v-28.56h-2.94V136.98z M282.66,129.42
	l-16.04-22.81v30.37h2.94v-21.04l16.04,22.81v-30.32h-2.94V129.42z M243.52,108.34h-6.93v2.73h6.93v25.83h2.94v-25.83h6.93v-2.73
	h-6.93H243.52z M318.85,116.91c-0.77-1.79-1.82-3.35-3.15-4.66c-1.33-1.32-2.89-2.36-4.68-3.13s-3.7-1.16-5.71-1.16
	c-2.02,0-3.91,0.39-5.69,1.16s-3.33,1.81-4.66,3.13c-1.33,1.32-2.38,2.87-3.15,4.66s-1.16,3.7-1.16,5.71
	c0,2.02,0.39,3.92,1.16,5.71c0.77,1.79,1.82,3.35,3.15,4.68c1.33,1.33,2.88,2.38,4.66,3.15c1.78,0.77,3.68,1.15,5.69,1.15
	c2.02,0,3.92-0.39,5.71-1.15c1.79-0.77,3.35-1.82,4.68-3.15c1.33-1.33,2.38-2.89,3.15-4.68c0.77-1.79,1.15-3.7,1.15-5.71
	C320,120.6,319.61,118.7,318.85,116.91z M313.62,130.94c-2.3,2.3-5.07,3.44-8.32,3.44c-3.22,0-5.98-1.15-8.27-3.44
	c-2.3-2.3-3.44-5.07-3.44-8.32c0-3.22,1.15-5.98,3.44-8.27c2.3-2.3,5.05-3.44,8.27-3.44c3.25,0,6.02,1.15,8.32,3.44
	c2.3,2.3,3.44,5.05,3.44,8.27C317.06,125.87,315.91,128.64,313.62,130.94z M198.37,108.42h-2.94v28.56h1.47h1.47h10.21v-2.94
	h-10.21V108.42z M175.52,126.19h11.59c-0.84,2.48-2.32,4.46-4.42,5.95c-2.11,1.49-4.45,2.24-7.04,2.24c-3.26,0-6.04-1.16-8.33-3.48
	c-2.29-2.32-3.43-5.09-3.43-8.33c0-3.25,1.15-6.02,3.44-8.32c2.3-2.3,5.07-3.44,8.32-3.44c2.45,0,4.67,0.69,6.66,2.07
	c1.99,1.38,3.44,3.22,4.34,5.54h3.11c-0.96-3.15-2.74-5.7-5.36-7.63c-2.61-1.94-5.63-2.91-9.05-2.91c-1.82,0-3.63,0.38-5.42,1.16
	c-1.79,0.77-3.35,1.82-4.68,3.15c-1.33,1.33-2.38,2.89-3.15,4.68c-0.77,1.79-1.16,3.7-1.16,5.73s0.39,3.94,1.16,5.73
	c0.77,1.79,1.82,3.35,3.15,4.68c1.33,1.33,2.89,2.38,4.68,3.15c1.79,0.77,3.7,1.15,5.71,1.15c3.46,0,6.58-1.12,9.36-3.36
	c2.78-2.24,4.47-5.1,5.09-8.57l0.29-1.76h-14.87V126.19z M230.29,127.95c0,1.15-0.21,2.13-0.63,2.94
	c-1.22,2.35-3.57,3.53-7.06,3.53c-2.25,0-4.04-0.5-5.4-1.51c-1.55-1.16-2.33-2.81-2.33-4.96v-19.53h-2.94v19.11
	c0,3.09,1.01,5.53,3.02,7.31c1.9,1.68,4.45,2.52,7.64,2.52c3.16,0,5.7-0.84,7.6-2.52c2.02-1.78,3.02-4.21,3.02-7.31v-19.11h-2.94
	V127.95z"/>
<path fill="#FFE7B7" d="M61.44,133.96l-2.76-1.02l10.49-28.5l7.18,26.94l7.25-19.71l2.76,1.02l-10.47,28.46l-7.18-26.94
L61.44,133.96z"/>
</svg>
